<svg xmlns="http://www.w3.org/2000/svg" width="63" height="16" viewBox="0 0 63 16">
    <defs>
        <filter id="prefix__a">
            <feColorMatrix in="SourceGraphic" values="0 0 0 0 0.243137 0 0 0 0 0.243137 0 0 0 0 0.321569 0 0 0 1.000000 0"/>
        </filter>
    </defs>
    <g fill="none" fill-rule="evenodd">
        <g filter="url(#prefix__a)">
            <path fill="#000" d="M8 2c.132 0 .264.024.388.073l.091.04 4.272 2.163c.29.146.482.411.516.715l.026.252c.097 1.111.08 2.939-.735 4.652-1.077 2.262-2.925 3.446-4.114 4.006-.14.066-.292.099-.444.099-.152 0-.304-.033-.445-.099l-.255-.125c-1.184-.603-2.855-1.775-3.858-3.881-.88-1.85-.83-3.834-.71-4.904.03-.27.187-.51.424-.662l.093-.053L7.52 2.113C7.67 2.038 7.835 2 8 2zm0 .667c-.042 0-.083.006-.122.018l-.056.023-4.273 2.163c-.089.045-.145.116-.154.194-.108.961-.166 2.829.649 4.543.966 2.029 2.597 3.126 3.795 3.69.05.023.106.035.161.035.055 0 .111-.012.16-.036 1.199-.563 2.83-1.66 3.796-3.689.815-1.714.757-3.582.649-4.543-.007-.063-.044-.12-.105-.164l-.05-.03-4.272-2.163c-.053-.027-.115-.041-.178-.041zm.222 2.666c.205 0 .372.167.372.372v1.608c0 .042.035.076.077.076h1.623c.206 0 .373.167.373.372v.491c0 .206-.167.371-.373.371H8.671c-.042 0-.077.035-.077.077v1.596c0 .205-.167.37-.372.37h-.444c-.206 0-.372-.165-.372-.37V8.7c0-.042-.035-.077-.077-.077H5.706c-.206 0-.373-.165-.373-.37V7.76c0-.205.167-.372.373-.372h1.623c.042 0 .077-.034.077-.076V5.705c0-.205.166-.372.372-.372h.444z"/>
        </g>
        <path fill="#3E3E52" fill-rule="nonzero" d="M22.948 13.108c.632 0 1.196-.1 1.692-.3.496-.2.886-.494 1.17-.882.284-.388.426-.85.426-1.386 0-.552-.132-.996-.396-1.332-.264-.336-.582-.588-.954-.756-.372-.168-.846-.336-1.422-.504-.576-.168-1.002-.33-1.278-.486-.276-.156-.414-.382-.414-.678 0-.232.096-.408.288-.528.192-.12.452-.18.78-.18.344 0 .758.078 1.242.234.484.156.942.366 1.374.63l.732-1.572c-.432-.28-.928-.504-1.488-.672-.56-.168-1.128-.252-1.704-.252-.648 0-1.216.102-1.704.306-.488.204-.868.496-1.14.876-.272.38-.408.822-.408 1.326 0 .544.132.98.396 1.308.264.328.578.572.942.732.364.16.834.32 1.41.48.4.112.714.212.942.3.228.088.416.202.564.342.148.14.222.318.222.534 0 .272-.11.48-.33.624-.22.144-.526.216-.918.216-.456 0-.96-.116-1.512-.348-.552-.232-1.04-.54-1.464-.924l-.756 1.548c.48.416 1.048.744 1.704.984.656.24 1.324.36 2.004.36zm6.3-.024c.448 0 .844-.072 1.188-.216.344-.144.624-.352.84-.624V13h1.812l-.012-4.212c-.008-.728-.25-1.296-.726-1.704-.476-.408-1.146-.612-2.01-.612-.536 0-1.028.06-1.476.18-.448.12-.928.308-1.44.564L28 8.488c.68-.376 1.32-.564 1.92-.564.44 0 .774.094 1.002.282.228.188.342.454.342.798v.12h-1.776c-.784.008-1.39.182-1.818.522-.428.34-.642.814-.642 1.422 0 .6.2 1.086.6 1.458.4.372.94.558 1.62.558zm.516-1.32c-.312 0-.558-.074-.738-.222-.18-.148-.27-.346-.27-.594 0-.256.086-.442.258-.558.172-.116.438-.174.798-.174h1.452v.576c-.056.28-.224.512-.504.696-.28.184-.612.276-.996.276zM36.868 13V8.116h1.524V6.832h-1.524v-.54c0-.248.072-.436.216-.564.144-.128.328-.192.552-.192.12 0 .248.018.384.054.136.036.264.078.384.126l.276-1.44c-.432-.176-.856-.264-1.272-.264-.44 0-.84.086-1.2.258-.36.172-.646.424-.858.756-.212.332-.318.73-.318 1.194v.612h-.864v1.284h.864V13h1.836zm5.076.072c.576 0 1.098-.098 1.566-.294.468-.196.866-.478 1.194-.846l-.972-.984c-.224.224-.476.394-.756.51-.28.116-.572.174-.876.174-.416 0-.772-.114-1.068-.342-.296-.228-.496-.546-.6-.954h4.632c.008-.104.012-.252.012-.444 0-1.072-.27-1.908-.81-2.508-.54-.6-1.33-.9-2.37-.9-.648 0-1.224.138-1.728.414-.504.276-.896.664-1.176 1.164-.28.5-.42 1.078-.42 1.734 0 .648.138 1.22.414 1.716.276.496.668.88 1.176 1.152.508.272 1.102.408 1.782.408zm1.392-3.828h-2.94c.072-.432.242-.774.51-1.026s.602-.378 1.002-.378c.424 0 .764.128 1.02.384s.392.596.408 1.02zm5.268 3.84c.296 0 .59-.038.882-.114.292-.076.558-.186.798-.33l-.384-1.356c-.328.16-.628.24-.9.24-.392 0-.588-.248-.588-.744V8.116h1.752V6.832h-1.752V5.056h-1.836v1.776h-.9v1.272h.9v2.988c0 .64.188 1.132.564 1.476.376.344.864.516 1.464.516zm3.564 2.328c1.128 0 1.916-.564 2.364-1.692l2.832-7.176h-1.848l-1.524 4.44-1.692-4.44h-1.908l2.676 6.324-.18.36c-.176.384-.46.576-.852.576-.28 0-.56-.116-.84-.348l-.78 1.332c.264.216.536.374.816.474.28.1.592.15.936.15zm8.736-3.684V9.7h2.052V8.476h-2.052v-2.04h-1.176v2.04h-2.052V9.7h2.052v2.028h1.176z"/>
    </g>
</svg>
